# xmcd CD database file
#
# Track frame offsets:
#	150
#	45358
#	87565
#	151137
#	183828
#	206143
#	230995
#
# Disc length: 3442 seconds
#
# Revision: 0
# Processed by: cddbd v1.4PL0 Copyright (c) Steve Scherf et al.
# Submitted via: CDex 1.50beta8
#
DISCID=570d7007
DTITLE=John Coltrane - Settin' The Peace
DYEAR=1900
DGENRE=Jazz
TTITLE0=I See Your Face Before Me
TTITLE1=2
TTITLE2=3
TTITLE3=4
TTITLE4=Like Someone in Love
TTITLE5=I love You
TTITLE6=Trane's Slo Blues
EXTD=
EXTT0=
EXTT1=
EXTT2=
EXTT3=
EXTT4=
EXTT5=
EXTT6=
PLAYORDER=
